# xmcd
#
# Track frame offsets:
#	150
#	11985
#	29443
#	48458
#	59001
#	69702
#	88167
#	109430
#	114182
#	128264
#	150789
#	187148
#	210491
#	237341
#	261187
#	279311
#	292386
#
# Disc length: 4127 seconds
# Revision: 0
# Processed by: cddbd v1.5.2PL0 Copyright (c) Steve Scherf et al.
# Submitted via: dBpowerAMP V12.0
#
DISCID=fe101d11
DTITLE=The Glory Gospel Singers - 1996 - Still going strong - 2013
DYEAR=2013
DGENRE=Gospel
TTITLE0=Amen
TTITLE1=King jesus
TTITLE2=We shall overcome
TTITLE3=Michael row the boat ashore
TTITLE4=Ezekial
TTITLE5=Walk with me
TTITLE6=Oh when the Saints - part 1
TTITLE7=Oh when the Saints - part 2
TTITLE8=I will follow him
TTITLE9=Joy
TTITLE10=Soon I'll be done
TTITLE11=Go down Moses
TTITLE12=Battle Hymn
TTITLE13=Total Praise
TTITLE14=Give me Jesus
TTITLE15=Joshua fit the battle of Jericho
TTITLE16=Oh Happy Day
EXTD=
EXTT0=
EXTT1=
EXTT2=
EXTT3=
EXTT4=
EXTT5=
EXTT6=
EXTT7=
EXTT8=
EXTT9=
EXTT10=
EXTT11=
EXTT12=
EXTT13=
EXTT14=
EXTT15=
EXTT16=
PLAYORDER=
